PathFileType	4	(X/Y/Z)	D:\TRACE\spot_10-12-23\spot_arm_body_motion_3_9-platform.trc
DataRate	CameraRate	NumFrames	NumMarkers	Units	OrigDataRate	OrigDataStartFrame	OrigNumFrames
100.00	100.00	      48	5	mm	100.00	4376	      7000
Frame#	Time	Left_Front			Right_Front			Left_Aft			Right_Aft			Post			
		X1	Y1	Z1	X2	Y2	Z2	X3	Y3	Z3	X4	Y4	Z4	X5	Y5	Z5	

4376	43.750	-786.70068	40.83504	-632.36615	785.92914	44.90365	-625.62183	-703.40851	-18.86769	504.10513	713.84631	-18.50672	590.07123	-3.70077	794.05212	-911.86523	
4377	43.760	-786.43512	41.07400	-632.45050	786.51166	45.33417	-625.40509	-703.10193	-18.99502	504.18262	714.24017	-18.60928	590.11365	-3.47177	794.26697	-911.63177	
4378	43.770	-785.97540	41.21152	-632.50317	786.81433	45.77354	-625.46979	-702.78699	-19.03471	504.14450	714.59802	-18.74005	590.13910	-3.34799	794.49536	-911.44061	
4379	43.780	-785.55145	41.26062	-632.45416	787.01276	45.72329	-625.61047	-702.44586	-19.22897	504.15594	715.00311	-19.02796	590.17816	-2.87445	794.59766	-911.34875	
4380	43.790	-785.24780	41.43224	-632.50751	787.36707	45.63008	-625.52643	-702.10968	-19.30611	504.03195	715.36890	-19.12434	590.22717	-2.23376	794.70447	-911.09143	
4381	43.800	-784.98407	41.74402	-632.18976	787.84790	45.71361	-625.42603	-701.45648	-19.44061	504.41162	715.68811	-19.10238	590.29205	-1.52219	794.77319	-910.86005	
4382	43.810	-784.61993	41.86477	-632.08185	788.21973	46.27093	-625.27686	-701.24316	-19.26405	504.19928	716.06763	-19.25379	590.27264	-1.12910	794.97296	-910.75348	
4383	43.820	-784.21973	41.78900	-632.04401	788.70013	46.45539	-625.13495	-700.83368	-19.50822	504.52423	716.39386	-19.46297	590.26556	-0.91223	795.26678	-910.69104	
4384	43.830	-783.86536	41.77683	-632.02466	789.05969	46.32969	-625.07446	-700.59088	-19.86164	504.60364	716.62555	-19.70622	590.27917	-0.87095	795.56702	-910.60553	
4385	43.840	-783.58789	42.06870	-632.01422	789.40881	46.45713	-625.08417	-700.25067	-20.13935	504.59567	716.88916	-19.87073	590.32141	0.82899	795.09912	-911.29492	
4386	43.850	-783.18628	42.35125	-632.00079	789.54767	46.78009	-625.10284	-699.94873	-20.11208	504.58386	717.15192	-19.94531	590.31146	-0.28158	795.91364	-910.32501	
4387	43.860	-782.85089	42.40427	-631.91772	789.61487	46.86111	-625.19501	-699.67346	-20.18735	504.54095	717.46832	-19.98968	590.29181	-0.09404	796.20526	-910.25708	
4388	43.870	-782.65649	42.71490	-631.96045	790.07733	46.91304	-625.05377	-699.45862	-20.13455	504.46942	717.69971	-20.21087	590.27185	0.21760	796.54242	-909.96375	
4389	43.880	-782.51245	42.71169	-631.99017	790.38031	47.13597	-624.97943	-699.10150	-20.40519	504.44647	717.82446	-20.38252	590.31354	0.54904	796.84021	-909.63239	
4390	43.890	-782.32330	42.82662	-631.93689	790.49988	47.29907	-624.96478	-699.06561	-20.57018	504.27557	717.99554	-20.55927	590.35791	0.86119	797.08429	-909.15076	
4391	43.900	-782.20392	43.08661	-631.85858	790.62500	47.45533	-624.87384	-698.88495	-20.65231	504.31354	718.17310	-20.65660	590.43872	0.79222	797.44568	-908.78369	
4392	43.910	-782.02985	43.41355	-631.72534	790.85504	47.80751	-624.67389	-698.74573	-20.60099	504.36090	718.34283	-20.73777	590.47217	2.40293	796.95062	-908.99005	
4393	43.920	-781.90631	43.82468	-631.64551	791.02100	48.11141	-624.63574	-698.64532	-20.63037	504.40799	718.55322	-20.93108	590.48157	1.14659	797.74542	-908.04852	
4394	43.930	-781.79016	43.92867	-631.65814	791.17596	48.22134	-624.56439	-698.46259	-20.76826	504.37869	718.79260	-21.15795	590.41742	1.06202	797.96747	-907.80682	
4395	43.940	-781.65002	44.11178	-631.68115	791.32257	48.30418	-624.59100	-698.32678	-20.93539	504.38165	718.95020	-21.40875	590.50830	1.21831	798.19775	-907.45245	
4396	43.950	-781.38348	44.27915	-631.67694	791.40759	48.42081	-624.58875	-698.23865	-21.10656	504.45743	718.98029	-21.61733	590.58716	1.52527	798.39600	-907.15491	
4397	43.960	-781.23352	44.45049	-631.58563	791.49542	48.51546	-624.50635	-698.10345	-21.33809	504.44772	718.99365	-21.78064	590.61475	1.94100	798.74536	-906.87604	
4398	43.970	-781.24475	44.57141	-631.55054	791.63531	48.65368	-624.39246	-698.01141	-21.40062	504.54971	719.06158	-21.90780	590.62927	1.91314	799.07709	-906.63177	
4399	43.980	-781.27051	44.67957	-631.49280	791.66638	48.88371	-624.37488	-697.99084	-21.48439	504.62537	719.01471	-22.09514	590.64661	2.03335	799.25269	-906.54437	
4400	43.990	-781.27216	44.80520	-631.47833	791.70148	49.03630	-624.34302	-697.93988	-21.70537	504.69940	719.02588	-22.26104	590.71521	2.00831	799.48322	-906.36890	
4401	44.000	-781.22443	44.79087	-631.41400	791.67413	49.11845	-624.34680	-697.84528	-21.90983	504.80429	718.97351	-22.44964	590.79456	1.89714	799.68671	-906.23560	
4402	44.010	-781.09576	44.85403	-631.30157	791.72418	49.21415	-624.33130	-697.75024	-22.06786	504.90121	718.96765	-22.65654	590.87793	1.88176	799.88757	-906.07837	
4403	44.020	-781.06720	45.17207	-631.14557	791.80151	49.44969	-624.31628	-697.65881	-22.15890	504.88522	719.08289	-22.74860	590.90302	1.90030	800.11621	-905.93915	
4404	44.030	-781.07489	45.42358	-631.11176	791.99121	49.73346	-624.15570	-697.65338	-22.13338	504.87604	719.25116	-22.84660	590.96625	2.01674	800.40082	-905.73260	
4405	44.040	-781.10516	45.63488	-631.03943	792.04498	49.95977	-624.07935	-697.64746	-22.22046	504.93372	719.38110	-22.86061	590.98651	3.69879	799.87061	-906.38068	
4406	44.050	-781.08417	45.69535	-630.96716	791.93927	50.11516	-624.03442	-697.67072	-22.26261	504.93732	719.40668	-22.93253	591.01910	1.77825	800.71997	-905.24695	
4407	44.060	-781.05127	45.79771	-630.91376	791.81781	50.22485	-624.07104	-697.65674	-22.44989	504.99173	719.38159	-23.00571	591.09723	1.80699	800.98700	-904.95001	
4408	44.070	-781.04059	45.96748	-630.90552	791.80865	50.32434	-623.99799	-697.76990	-22.55579	505.01440	719.36102	-23.08792	591.09229	1.71932	801.20270	-904.73102	
4409	44.080	-781.02502	46.22675	-630.92102	791.78088	50.52736	-623.87988	-697.78931	-22.60241	504.98972	719.45563	-23.05647	591.14447	1.78489	801.38104	-904.52283	
4410	44.090	-781.01752	46.56797	-630.97864	791.81165	50.70204	-623.83453	-697.73688	-22.64259	504.99585	719.59241	-23.07531	591.10028	1.92283	801.66241	-904.25421	
4411	44.100	-781.00629	46.63011	-630.93256	791.77606	50.79263	-623.84058	-697.77710	-22.70094	505.01416	719.64575	-23.22930	591.10156	2.05402	801.82117	-904.06836	
4412	44.110	-780.99750	46.64398	-630.84637	791.73553	50.97828	-623.74725	-697.78674	-22.85144	505.05927	719.58502	-23.19441	591.15521	2.50435	801.72491	-904.10522	
4413	44.120	-780.99353	46.58345	-630.80585	791.64508	51.00869	-623.77386	-697.96735	-22.93152	505.07077	719.56091	-23.43455	591.13391	1.96528	802.09088	-903.61768	
4414	44.130	-781.18555	46.73021	-630.82806	791.47888	51.12715	-623.83514	-698.02704	-22.98993	505.07822	719.37427	-23.46533	591.19537	1.86125	802.25403	-903.49707	
4415	44.140	-781.44348	47.01415	-630.80096	791.17377	50.98381	-623.89404	-698.31207	-23.04746	505.14243	719.16663	-23.45770	591.26782	1.46822	802.48083	-903.40277	
4416	44.150	-781.58386	46.95021	-630.59766	790.96423	51.19913	-623.78131	-698.44556	-23.11898	505.16580	718.97003	-23.62778	591.26215	1.11336	802.78876	-903.22559	
4417	44.160	-781.86475	47.19878	-630.55890	790.79413	51.30965	-623.68250	-698.55981	-23.22276	505.16379	718.74298	-23.75942	591.34222	0.71969	803.00488	-903.08118	
4418	44.170	-782.06299	47.15746	-630.55823	790.60333	51.37267	-623.68500	-698.76703	-23.30118	505.20847	718.53522	-23.80735	591.39227	1.71437	802.45764	-903.47662	
4419	44.180	-782.18219	47.16829	-630.52954	790.44342	51.62749	-623.71564	-698.94702	-23.36045	505.16992	718.32196	-23.92997	591.38556	0.44647	803.08533	-902.87146	
4420	44.190	-782.37378	47.25298	-630.48743	790.40747	51.68420	-623.70374	-699.01587	-23.44000	505.20425	718.22626	-24.06024	591.37927	0.39598	803.15100	-902.77075	
4421	44.200	-782.44879	47.39601	-630.44775	790.32184	51.73994	-623.60382	-699.15009	-23.41268	505.19452	718.07227	-24.00429	591.37146	0.37986	803.24878	-902.65594	
4422	44.210	-782.61603	47.58111	-630.41248	790.17157	51.82352	-623.54517	-699.31769	-23.44089	505.21332	717.90961	-24.06779	591.38049	0.20050	803.30194	-902.55347	
4423	44.220	-782.85767	47.58255	-630.39801	789.93207	51.92656	-623.49738	-699.59326	-23.45278	505.20895	717.68237	-24.11929	591.36505	0.03021	803.38562	-902.44556	
